<?xml version="1.0" encoding="UTF-8" standalone="no"?>
<svg
   xmlns:dc="http://purl.org/dc/elements/1.1/"
   xmlns:cc="http://creativecommons.org/ns#"
   xmlns:rdf="http://www.w3.org/1999/02/22-rdf-syntax-ns#"
   xmlns:svg="http://www.w3.org/2000/svg"
   xmlns="http://www.w3.org/2000/svg"
   xmlns:sodipodi="http://sodipodi.sourceforge.net/DTD/sodipodi-0.dtd"
   xmlns:inkscape="http://www.inkscape.org/namespaces/inkscape"
   viewBox="0 -256 1950 1950"
   id="svg2"
   version="1.1"
   inkscape:version="0.48.5 r10040"
   width="100%"
   height="100%"
   sodipodi:docname="Credit_card_font_awesome.svg">
  <metadata
     id="metadata12">
    <rdf:RDF>
      <cc:Work
         rdf:about="">
        <dc:format>image/svg+xml</dc:format>
        <dc:type
           rdf:resource="http://purl.org/dc/dcmitype/StillImage" />
        <dc:title></dc:title>
      </cc:Work>
    </rdf:RDF>
  </metadata>
  <defs
     id="defs10" />
  <sodipodi:namedview
     pagecolor="#ffffff"
     bordercolor="#666666"
     borderopacity="1"
     objecttolerance="10"
     gridtolerance="10"
     guidetolerance="10"
     inkscape:pageopacity="0"
     inkscape:pageshadow="2"
     inkscape:window-width="1920"
     inkscape:window-height="1007"
     id="namedview8"
     showgrid="false"
     inkscape:zoom="0.13169643"
     inkscape:cx="-376.40677"
     inkscape:cy="896"
     inkscape:window-x="0"
     inkscape:window-y="25"
     inkscape:window-maximized="1"
     inkscape:current-layer="svg2" />
  <path
     style="fill:#209bd4;fill-opacity:1"
     inkscape:connector-curvature="0"
     id="path6"
     d="m 1782.7797,-40.5085 q 66,0 113,47 47,47 47,113 v 1216 q 0,66 -47,113 -47,47 -113,47 H 182.77966 q -66,0 -112.999999,-47 -47,-47 -47,-113 v -1216 q 0,-66 47,-113 46.999999,-47 112.999999,-47 H 1782.7797 z m -1600.00004,128 q -13,0 -22.5,9.5 -9.5,9.5 -9.5,22.5 v 224 H 1814.7797 v -224 q 0,-13 -9.5,-22.5 -9.5,-9.5 -22.5,-9.5 H 182.77966 z m 1600.00004,1280 q 13,0 22.5,-9.5 9.5,-9.5 9.5,-22.5 v -608 H 150.77966 v 608 q 0,13 9.5,22.5 9.5,9.5 22.5,9.5 H 1782.7797 z m -1504.00004,-128 v -128 h 256 v 128 h -256 z m 384,0 v -128 h 384.00004 v 128 H 662.77966 z" />
</svg>
